<?xml version="1.0" encoding="utf-8" standalone="no"?>
<!DOCTYPE svg PUBLIC "-//W3C//DTD SVG 1.1//EN"
  "http://www.w3.org/Graphics/SVG/1.1/DTD/svg11.dtd">
<svg xmlns:xlink="http://www.w3.org/1999/xlink" width="733.249047pt" height="232.07026pt" viewBox="0 0 733.249047 232.07026" xmlns="http://www.w3.org/2000/svg" version="1.1">
 <metadata>
  <rdf:RDF xmlns:dc="http://purl.org/dc/elements/1.1/" xmlns:cc="http://creativecommons.org/ns#" xmlns:rdf="http://www.w3.org/1999/02/22-rdf-syntax-ns#">
   <cc:Work>
    <dc:type rdf:resource="http://purl.org/dc/dcmitype/StillImage"/>
    <dc:date>2026-07-05T20:14:26.471843</dc:date>
    <dc:format>image/svg+xml</dc:format>
    <dc:creator>
     <cc:Agent>
      <dc:title>Matplotlib v3.10.9, https://matplotlib.org/</dc:title>
     </cc:Agent>
    </dc:creator>
   </cc:Work>
  </rdf:RDF>
 </metadata>
 <defs>
  <style type="text/css">*{stroke-linejoin: round; stroke-linecap: butt}</style>
 </defs>
 <g id="figure_1">
  <g id="patch_1">
   <path d="M 0 232.07026 
L 733.249047 232.07026 
L 733.249047 0 
L 0 0 
z
" style="fill: #ffffff"/>
  </g>
  <g id="axes_1">
   <g id="line2d_1">
    <path d="M 36.863331 79.32128 
L 693.195405 79.32128 
" clip-path="url(#p348fde0d2b)" style="fill: none; stroke: #8a9099; stroke-width: 1.1; stroke-linecap: round"/>
   </g>
   <g id="line2d_2">
    <path d="M 36.863331 138.519924 
L 693.195405 138.519924 
" clip-path="url(#p348fde0d2b)" style="fill: none; stroke: #8a9099; stroke-width: 1.1; stroke-linecap: round"/>
   </g>
   <g id="patch_2">
    <path d="M 319.841719 155.687531 
L 355.399213 155.687531 
L 355.399213 56.825795 
L 319.841719 56.825795 
z
" clip-path="url(#p348fde0d2b)" style="fill: #9c6ade; opacity: 0.14; stroke: #9c6ade; stroke-linejoin: miter"/>
   </g>
   <g id="patch_3">
    <path d="M 36.898592 148.583693 
L 42.754319 148.583693 
Q 42.78958 148.583693 42.78958 145.765838 
L 42.78958 131.27401 
Q 42.78958 128.456154 42.754319 128.456154 
L 36.898592 128.456154 
Q 36.863331 128.456154 36.863331 131.27401 
L 36.863331 145.765838 
Q 36.863331 148.583693 36.898592 148.583693 
z
" clip-path="url(#p348fde0d2b)" style="fill: #d9dce1; stroke: #aeb4bd; stroke-width: 0.6; stroke-linejoin: miter"/>
   </g>
   <g id="patch_4">
    <path d="M 42.824841 148.583693 
L 114.610088 148.583693 
Q 114.645349 148.583693 114.645349 145.765838 
L 114.645349 131.27401 
Q 114.645349 128.456154 114.610088 128.456154 
L 42.824841 128.456154 
Q 42.78958 128.456154 42.78958 131.27401 
L 42.78958 145.765838 
Q 42.78958 148.583693 42.824841 148.583693 
z
" clip-path="url(#p348fde0d2b)" style="fill: #d9dce1; stroke: #aeb4bd; stroke-width: 0.6; stroke-linejoin: miter"/>
   </g>
   <g id="patch_5">
    <path d="M 114.68061 148.583693 
L 180.539607 148.583693 
Q 180.574869 148.583693 180.574869 145.765838 
L 180.574869 131.27401 
Q 180.574869 128.456154 180.539607 128.456154 
L 114.68061 128.456154 
Q 114.645349 128.456154 114.645349 131.27401 
L 114.645349 145.765838 
Q 114.645349 148.583693 114.68061 148.583693 
z
" clip-path="url(#p348fde0d2b)" style="fill: #d9dce1; stroke: #aeb4bd; stroke-width: 0.6; stroke-linejoin: miter"/>
   </g>
   <g id="patch_6">
    <path d="M 180.61013 148.583693 
L 199.799917 148.583693 
Q 199.835178 148.583693 199.835178 145.765838 
L 199.835178 131.27401 
Q 199.835178 128.456154 199.799917 128.456154 
L 180.61013 128.456154 
Q 180.574869 128.456154 180.574869 131.27401 
L 180.574869 145.765838 
Q 180.574869 148.583693 180.61013 148.583693 
z
" clip-path="url(#p348fde0d2b)" style="fill: #d9dce1; stroke: #aeb4bd; stroke-width: 0.6; stroke-linejoin: miter"/>
   </g>
   <g id="patch_7">
    <path d="M 199.870439 148.583693 
L 241.283659 148.583693 
Q 241.318921 148.583693 241.318921 145.765838 
L 241.318921 131.27401 
Q 241.318921 128.456154 241.283659 128.456154 
L 199.870439 128.456154 
Q 199.835178 128.456154 199.835178 131.27401 
L 199.835178 145.765838 
Q 199.835178 148.583693 199.870439 148.583693 
z
" clip-path="url(#p348fde0d2b)" style="fill: #d9dce1; stroke: #aeb4bd; stroke-width: 0.6; stroke-linejoin: miter"/>
   </g>
   <g id="patch_8">
    <path d="M 242.094963 148.583693 
L 272.396467 148.583693 
Q 272.431728 148.583693 272.431728 145.765838 
L 272.431728 131.27401 
Q 272.431728 128.456154 272.396467 128.456154 
L 242.094963 128.456154 
Q 242.059702 128.456154 242.059702 131.27401 
L 242.059702 145.765838 
Q 242.059702 148.583693 242.094963 148.583693 
z
" clip-path="url(#p348fde0d2b)" style="fill: #d9dce1; stroke: #aeb4bd; stroke-width: 0.6; stroke-linejoin: miter"/>
   </g>
   <g id="patch_9">
    <path d="M 272.466989 148.583693 
L 319.065677 148.583693 
Q 319.100938 148.583693 319.100938 145.765838 
L 319.100938 131.27401 
Q 319.100938 128.456154 319.065677 128.456154 
L 272.466989 128.456154 
Q 272.431728 128.456154 272.431728 131.27401 
L 272.431728 145.765838 
Q 272.431728 148.583693 272.466989 148.583693 
z
" clip-path="url(#p348fde0d2b)" style="fill: #d9dce1; stroke: #aeb4bd; stroke-width: 0.6; stroke-linejoin: miter"/>
   </g>
   <g id="patch_10">
    <path d="M 355.434474 148.583693 
L 404.996287 148.583693 
Q 405.031548 148.583693 405.031548 145.765838 
L 405.031548 131.27401 
Q 405.031548 128.456154 404.996287 128.456154 
L 355.434474 128.456154 
Q 355.399213 128.456154 355.399213 131.27401 
L 355.399213 145.765838 
Q 355.399213 148.583693 355.434474 148.583693 
z
" clip-path="url(#p348fde0d2b)" style="fill: #d9dce1; stroke: #aeb4bd; stroke-width: 0.6; stroke-linejoin: miter"/>
   </g>
   <g id="patch_11">
    <path d="M 405.807591 148.583693 
L 442.776124 148.583693 
Q 442.811386 148.583693 442.811386 145.765838 
L 442.811386 131.27401 
Q 442.811386 128.456154 442.776124 128.456154 
L 405.807591 128.456154 
Q 405.77233 128.456154 405.77233 131.27401 
L 405.77233 145.765838 
Q 405.77233 148.583693 405.807591 148.583693 
z
" clip-path="url(#p348fde0d2b)" style="fill: #d9dce1; stroke: #aeb4bd; stroke-width: 0.6; stroke-linejoin: miter"/>
   </g>
   <g id="patch_12">
    <path d="M 442.846647 148.583693 
L 473.14815 148.583693 
Q 473.183412 148.583693 473.183412 145.765838 
L 473.183412 131.27401 
Q 473.183412 128.456154 473.14815 128.456154 
L 442.846647 128.456154 
Q 442.811386 128.456154 442.811386 131.27401 
L 442.811386 145.765838 
Q 442.811386 148.583693 442.846647 148.583693 
z
" clip-path="url(#p348fde0d2b)" style="fill: #d9dce1; stroke: #aeb4bd; stroke-width: 0.6; stroke-linejoin: miter"/>
   </g>
   <g id="patch_13">
    <path d="M 473.218673 148.583693 
L 500.557052 148.583693 
Q 500.592313 148.583693 500.592313 145.765838 
L 500.592313 131.27401 
Q 500.592313 128.456154 500.557052 128.456154 
L 473.218673 128.456154 
Q 473.183412 128.456154 473.183412 131.27401 
L 473.183412 145.765838 
Q 473.183412 148.583693 473.218673 148.583693 
z
" clip-path="url(#p348fde0d2b)" style="fill: #d9dce1; stroke: #aeb4bd; stroke-width: 0.6; stroke-linejoin: miter"/>
   </g>
   <g id="patch_14">
    <path d="M 500.627574 148.583693 
L 547.226263 148.583693 
Q 547.261524 148.583693 547.261524 145.765838 
L 547.261524 131.27401 
Q 547.261524 128.456154 547.226263 128.456154 
L 500.627574 128.456154 
Q 500.592313 128.456154 500.592313 131.27401 
L 500.592313 145.765838 
Q 500.592313 148.583693 500.627574 148.583693 
z
" clip-path="url(#p348fde0d2b)" style="fill: #d9dce1; stroke: #aeb4bd; stroke-width: 0.6; stroke-linejoin: miter"/>
   </g>
   <g id="patch_15">
    <path d="M 548.037566 148.583693 
L 577.598289 148.583693 
Q 577.63355 148.583693 577.63355 145.765838 
L 577.63355 131.27401 
Q 577.63355 128.456154 577.598289 128.456154 
L 548.037566 128.456154 
Q 548.002305 128.456154 548.002305 131.27401 
L 548.002305 145.765838 
Q 548.002305 148.583693 548.037566 148.583693 
z
" clip-path="url(#p348fde0d2b)" style="fill: #d9dce1; stroke: #aeb4bd; stroke-width: 0.6; stroke-linejoin: miter"/>
   </g>
   <g id="patch_16">
    <path d="M 578.409592 148.583693 
L 595.377036 148.583693 
Q 595.412297 148.583693 595.412297 145.765838 
L 595.412297 131.27401 
Q 595.412297 128.456154 595.377036 128.456154 
L 578.409592 128.456154 
Q 578.374331 128.456154 578.374331 131.27401 
L 578.374331 145.765838 
Q 578.374331 148.583693 578.409592 148.583693 
z
" clip-path="url(#p348fde0d2b)" style="fill: #d9dce1; stroke: #aeb4bd; stroke-width: 0.6; stroke-linejoin: miter"/>
   </g>
   <g id="patch_17">
    <path d="M 595.447558 148.583693 
L 629.452967 148.583693 
Q 629.488228 148.583693 629.488228 145.765838 
L 629.488228 131.27401 
Q 629.488228 128.456154 629.452967 128.456154 
L 595.447558 128.456154 
Q 595.412297 128.456154 595.412297 131.27401 
L 595.412297 145.765838 
Q 595.412297 148.583693 595.447558 148.583693 
z
" clip-path="url(#p348fde0d2b)" style="fill: #d9dce1; stroke: #aeb4bd; stroke-width: 0.6; stroke-linejoin: miter"/>
   </g>
   <g id="patch_18">
    <path d="M 629.523489 148.583693 
L 655.380306 148.583693 
Q 655.415568 148.583693 655.415568 145.765838 
L 655.415568 131.27401 
Q 655.415568 128.456154 655.380306 128.456154 
L 629.523489 128.456154 
Q 629.488228 128.456154 629.488228 131.27401 
L 629.488228 145.765838 
Q 629.488228 148.583693 629.523489 148.583693 
z
" clip-path="url(#p348fde0d2b)" style="fill: #d9dce1; stroke: #aeb4bd; stroke-width: 0.6; stroke-linejoin: miter"/>
   </g>
   <g id="patch_19">
    <path d="M 656.19161 148.583693 
L 693.160144 148.583693 
Q 693.195405 148.583693 693.195405 145.765838 
L 693.195405 131.27401 
Q 693.195405 128.456154 693.160144 128.456154 
L 656.19161 128.456154 
Q 656.156349 128.456154 656.156349 131.27401 
L 656.156349 145.765838 
Q 656.156349 148.583693 656.19161 148.583693 
z
" clip-path="url(#p348fde0d2b)" style="fill: #d9dce1; stroke: #aeb4bd; stroke-width: 0.6; stroke-linejoin: miter"/>
   </g>
   <g id="line2d_3">
    <path d="M 36.863331 174.03911 
L 693.195405 174.03911 
" clip-path="url(#p348fde0d2b)" style="fill: none; stroke: #6b7280; stroke-width: 0.8; stroke-linecap: square"/>
   </g>
   <g id="line2d_4">
    <path d="M 36.863331 176.999042 
L 36.863331 171.079178 
" clip-path="url(#p348fde0d2b)" style="fill: none; stroke: #6b7280; stroke-width: 0.7; stroke-linecap: square"/>
   </g>
   <g id="line2d_5">
    <path d="M 110.200662 176.999042 
L 110.200662 171.079178 
" clip-path="url(#p348fde0d2b)" style="fill: none; stroke: #6b7280; stroke-width: 0.7; stroke-linecap: square"/>
   </g>
   <g id="line2d_6">
    <path d="M 184.278774 176.999042 
L 184.278774 171.079178 
" clip-path="url(#p348fde0d2b)" style="fill: none; stroke: #6b7280; stroke-width: 0.7; stroke-linecap: square"/>
   </g>
   <g id="line2d_7">
    <path d="M 258.356886 176.999042 
L 258.356886 171.079178 
" clip-path="url(#p348fde0d2b)" style="fill: none; stroke: #6b7280; stroke-width: 0.7; stroke-linecap: square"/>
   </g>
   <g id="line2d_8">
    <path d="M 332.434999 176.999042 
L 332.434999 171.079178 
" clip-path="url(#p348fde0d2b)" style="fill: none; stroke: #6b7280; stroke-width: 0.7; stroke-linecap: square"/>
   </g>
   <g id="line2d_9">
    <path d="M 406.513111 176.999042 
L 406.513111 171.079178 
" clip-path="url(#p348fde0d2b)" style="fill: none; stroke: #6b7280; stroke-width: 0.7; stroke-linecap: square"/>
   </g>
   <g id="line2d_10">
    <path d="M 480.591223 176.999042 
L 480.591223 171.079178 
" clip-path="url(#p348fde0d2b)" style="fill: none; stroke: #6b7280; stroke-width: 0.7; stroke-linecap: square"/>
   </g>
   <g id="line2d_11">
    <path d="M 554.669335 176.999042 
L 554.669335 171.079178 
" clip-path="url(#p348fde0d2b)" style="fill: none; stroke: #6b7280; stroke-width: 0.7; stroke-linecap: square"/>
   </g>
   <g id="line2d_12">
    <path d="M 628.747447 176.999042 
L 628.747447 171.079178 
" clip-path="url(#p348fde0d2b)" style="fill: none; stroke: #6b7280; stroke-width: 0.7; stroke-linecap: square"/>
   </g>
   <g id="text_1">
    <text style="font-size: 6.4px; font-family: 'Helvetica', 'Arial', 'DejaVu Sans', sans-serif; fill: #6b7280" transform="translate(11.791 91.41578) rotate(-90)">domains</text>
   </g>
   <g id="text_2">
    <text style="font-size: 6.4px; font-family: 'Helvetica', 'Arial', 'DejaVu Sans', sans-serif; fill: #6b7280" transform="translate(11.791 154.703924) rotate(-90)">CDS exons</text>
   </g>
   <g id="text_3">
    <text style="font-weight: 700; font-size: 6.4px; font-family: 'Helvetica', 'Arial', 'DejaVu Sans', sans-serif; text-anchor: middle; fill: #9c6ade" x="337.620466" y="165.014422" transform="rotate(-0 337.620466 165.014422)">IIIb</text>
   </g>
   <g id="patch_20">
    <path d="M 120.625527 94.712927 
L 167.927661 94.712927 
Q 167.98159 94.712927 167.98159 90.403266 
L 167.98159 68.239293 
Q 167.98159 63.929632 167.927661 63.929632 
L 120.625527 63.929632 
Q 120.571598 63.929632 120.571598 68.239293 
L 120.571598 90.403266 
Q 120.571598 94.712927 120.625527 94.712927 
z
" clip-path="url(#p348fde0d2b)" style="fill: #0072b2; stroke: #1a1a1a; stroke-width: 0.7; stroke-linejoin: miter"/>
   </g>
   <g id="line2d_13">
    <path d="M 120.571598 97.672859 
L 120.571598 60.9697 
" clip-path="url(#p348fde0d2b)" style="fill: none; stroke: #1a1a1a; stroke-width: 0.45; stroke-linecap: square"/>
   </g>
   <g id="line2d_14">
    <path d="M 167.98159 97.672859 
L 167.98159 60.9697 
" clip-path="url(#p348fde0d2b)" style="fill: none; stroke: #1a1a1a; stroke-width: 0.45; stroke-linecap: square"/>
   </g>
   <g id="patch_21">
    <path d="M 213.963948 94.712927 
L 270.896237 94.712927 
Q 270.950165 94.712927 270.950165 90.403266 
L 270.950165 68.239293 
Q 270.950165 63.929632 270.896237 63.929632 
L 213.963948 63.929632 
Q 213.910019 63.929632 213.910019 68.239293 
L 213.910019 90.403266 
Q 213.910019 94.712927 213.963948 94.712927 
z
" clip-path="url(#p348fde0d2b)" style="fill: #0072b2; stroke: #1a1a1a; stroke-width: 0.7; stroke-linejoin: miter"/>
   </g>
   <g id="line2d_15">
    <path d="M 213.910019 97.672859 
L 213.910019 60.9697 
" clip-path="url(#p348fde0d2b)" style="fill: none; stroke: #1a1a1a; stroke-width: 0.45; stroke-linecap: square"/>
   </g>
   <g id="line2d_16">
    <path d="M 270.950165 97.672859 
L 270.950165 60.9697 
" clip-path="url(#p348fde0d2b)" style="fill: none; stroke: #1a1a1a; stroke-width: 0.45; stroke-linecap: square"/>
   </g>
   <g id="patch_22">
    <path d="M 282.115811 94.712927 
L 351.641379 94.712927 
Q 351.695308 94.712927 351.695308 90.403266 
L 351.695308 68.239293 
Q 351.695308 63.929632 351.641379 63.929632 
L 282.115811 63.929632 
Q 282.061882 63.929632 282.061882 68.239293 
L 282.061882 90.403266 
Q 282.061882 94.712927 282.115811 94.712927 
z
" clip-path="url(#p348fde0d2b)" style="fill: #0072b2; stroke: #1a1a1a; stroke-width: 0.7; stroke-linejoin: miter"/>
   </g>
   <g id="line2d_17">
    <path d="M 282.061882 97.672859 
L 282.061882 60.9697 
" clip-path="url(#p348fde0d2b)" style="fill: none; stroke: #1a1a1a; stroke-width: 0.45; stroke-linecap: square"/>
   </g>
   <g id="line2d_18">
    <path d="M 351.695308 97.672859 
L 351.695308 60.9697 
" clip-path="url(#p348fde0d2b)" style="fill: none; stroke: #1a1a1a; stroke-width: 0.45; stroke-linecap: square"/>
   </g>
   <g id="patch_23">
    <path d="M 365.083297 94.712927 
L 381.272624 94.712927 
Q 381.326553 94.712927 381.326553 90.403266 
L 381.326553 68.239293 
Q 381.326553 63.929632 381.272624 63.929632 
L 365.083297 63.929632 
Q 365.029368 63.929632 365.029368 68.239293 
L 365.029368 90.403266 
Q 365.029368 94.712927 365.083297 94.712927 
z
" clip-path="url(#p348fde0d2b)" style="fill: #e69f00; stroke: #1a1a1a; stroke-width: 0.7; stroke-linejoin: miter"/>
   </g>
   <g id="line2d_19">
    <path d="M 365.029368 97.672859 
L 365.029368 60.9697 
" clip-path="url(#p348fde0d2b)" style="fill: none; stroke: #1a1a1a; stroke-width: 0.45; stroke-linecap: square"/>
   </g>
   <g id="line2d_20">
    <path d="M 381.326553 97.672859 
L 381.326553 60.9697 
" clip-path="url(#p348fde0d2b)" style="fill: none; stroke: #1a1a1a; stroke-width: 0.45; stroke-linecap: square"/>
   </g>
   <g id="patch_24">
    <path d="M 411.752507 94.712927 
L 658.324763 94.712927 
Q 658.378692 94.712927 658.378692 90.403266 
L 658.378692 68.239293 
Q 658.378692 63.929632 658.324763 63.929632 
L 411.752507 63.929632 
Q 411.698579 63.929632 411.698579 68.239293 
L 411.698579 90.403266 
Q 411.698579 94.712927 411.752507 94.712927 
z
" clip-path="url(#p348fde0d2b)" style="fill: #e6b800; stroke: #1a1a1a; stroke-width: 0.7; stroke-linejoin: miter"/>
   </g>
   <g id="line2d_21">
    <path d="M 411.698579 97.672859 
L 411.698579 60.9697 
" clip-path="url(#p348fde0d2b)" style="fill: none; stroke: #1a1a1a; stroke-width: 0.45; stroke-linecap: square"/>
   </g>
   <g id="line2d_22">
    <path d="M 658.378692 97.672859 
L 658.378692 60.9697 
" clip-path="url(#p348fde0d2b)" style="fill: none; stroke: #1a1a1a; stroke-width: 0.45; stroke-linecap: square"/>
   </g>
   <g id="text_4">
    <text style="font-weight: 700; font-size: 8.5px; font-family: 'Helvetica', 'Arial', 'DejaVu Sans', sans-serif; text-anchor: middle; fill: #1a1a1a" x="36.863331" y="45.582293" transform="rotate(-0 36.863331 45.582293)">N</text>
   </g>
   <g id="text_5">
    <text style="font-weight: 700; font-size: 8.5px; font-family: 'Helvetica', 'Arial', 'DejaVu Sans', sans-serif; text-anchor: middle; fill: #1a1a1a" x="693.195405" y="45.582293" transform="rotate(-0 693.195405 45.582293)">C</text>
   </g>
   <g id="text_6">
    <text style="font-size: 6.4px; font-family: 'Helvetica', 'Arial', 'DejaVu Sans', sans-serif; text-anchor: middle; fill: #6b7280" x="36.863331" y="184.549975" transform="rotate(-0 36.863331 184.549975)">0</text>
   </g>
   <g id="text_7">
    <text style="font-size: 6.4px; font-family: 'Helvetica', 'Arial', 'DejaVu Sans', sans-serif; text-anchor: middle; fill: #6b7280" x="110.200662" y="184.549975" transform="rotate(-0 110.200662 184.549975)">100</text>
   </g>
   <g id="text_8">
    <text style="font-size: 6.4px; font-family: 'Helvetica', 'Arial', 'DejaVu Sans', sans-serif; text-anchor: middle; fill: #6b7280" x="184.278774" y="184.549975" transform="rotate(-0 184.278774 184.549975)">200</text>
   </g>
   <g id="text_9">
    <text style="font-size: 6.4px; font-family: 'Helvetica', 'Arial', 'DejaVu Sans', sans-serif; text-anchor: middle; fill: #6b7280" x="258.356886" y="184.549975" transform="rotate(-0 258.356886 184.549975)">300</text>
   </g>
   <g id="text_10">
    <text style="font-size: 6.4px; font-family: 'Helvetica', 'Arial', 'DejaVu Sans', sans-serif; text-anchor: middle; fill: #6b7280" x="332.434999" y="184.549975" transform="rotate(-0 332.434999 184.549975)">400</text>
   </g>
   <g id="text_11">
    <text style="font-size: 6.4px; font-family: 'Helvetica', 'Arial', 'DejaVu Sans', sans-serif; text-anchor: middle; fill: #6b7280" x="406.513111" y="184.549975" transform="rotate(-0 406.513111 184.549975)">500</text>
   </g>
   <g id="text_12">
    <text style="font-size: 6.4px; font-family: 'Helvetica', 'Arial', 'DejaVu Sans', sans-serif; text-anchor: middle; fill: #6b7280" x="480.591223" y="184.549975" transform="rotate(-0 480.591223 184.549975)">600</text>
   </g>
   <g id="text_13">
    <text style="font-size: 6.4px; font-family: 'Helvetica', 'Arial', 'DejaVu Sans', sans-serif; text-anchor: middle; fill: #6b7280" x="554.669335" y="184.549975" transform="rotate(-0 554.669335 184.549975)">700</text>
   </g>
   <g id="text_14">
    <text style="font-size: 6.4px; font-family: 'Helvetica', 'Arial', 'DejaVu Sans', sans-serif; text-anchor: middle; fill: #6b7280" x="628.747447" y="184.549975" transform="rotate(-0 628.747447 184.549975)">800</text>
   </g>
   <g id="text_15">
    <text style="font-size: 6.4px; font-family: 'Helvetica', 'Arial', 'DejaVu Sans', sans-serif; text-anchor: start; fill: #6b7280" x="693.195405" y="184.549975" transform="rotate(-0 693.195405 184.549975)">aa</text>
   </g>
   <g id="text_16">
    <text style="font-size: 9px; font-family: 'Helvetica', 'Arial', 'DejaVu Sans', sans-serif; text-anchor: start; fill: #6b7280" x="9.839636" y="23.17807" transform="rotate(-0 9.839636 23.17807)">XM_014732943.3 · XP_014588429.1 · 887 aa · QC: architecture_supported_with_minor_flags</text>
   </g>
   <g id="text_17">
    <text style="font-weight: 700; font-size: 12px; font-family: 'Helvetica', 'Arial', 'DejaVu Sans', sans-serif; text-anchor: start; fill: #1a1a1a" x="9.839636" y="16.0425" transform="rotate(-0 9.839636 16.0425)">Equus caballus — FGFR2 IIIb</text>
   </g>
   <g id="patch_25">
    <path d="M 319.876981 148.583693 
L 355.363952 148.583693 
Q 355.399213 148.583693 355.399213 145.765838 
L 355.399213 131.27401 
Q 355.399213 128.456154 355.363952 128.456154 
L 319.876981 128.456154 
Q 319.841719 128.456154 319.841719 131.27401 
L 319.841719 145.765838 
Q 319.841719 148.583693 319.876981 148.583693 
z
" clip-path="url(#p348fde0d2b)" style="fill: #9c6ade; stroke: #1a1a1a; stroke-width: 0.7; stroke-linejoin: miter"/>
   </g>
   <g id="text_18">
    <text style="font-size: 5.4px; font-family: 'Helvetica', 'Arial', 'DejaVu Sans', sans-serif; text-anchor: middle; fill: #7a7f87" x="39.826456" y="109.570999" transform="rotate(-0 39.826456 109.570999)">1</text>
   </g>
   <g id="text_19">
    <text style="font-size: 6.1px; font-family: 'Helvetica', 'Arial', 'DejaVu Sans', sans-serif; text-anchor: middle; fill: #4a4f57" x="78.717464" y="140.072088" transform="rotate(-0 78.717464 140.072088)">2</text>
   </g>
   <g id="text_20">
    <text style="font-size: 6.1px; font-family: 'Helvetica', 'Arial', 'DejaVu Sans', sans-serif; text-anchor: middle; fill: #4a4f57" x="147.610109" y="140.072088" transform="rotate(-0 147.610109 140.072088)">3</text>
   </g>
   <g id="text_21">
    <text style="font-size: 6.1px; font-family: 'Helvetica', 'Arial', 'DejaVu Sans', sans-serif; text-anchor: middle; fill: #4a4f57" x="190.205023" y="140.072088" transform="rotate(-0 190.205023 140.072088)">4</text>
   </g>
   <g id="text_22">
    <text style="font-size: 6.1px; font-family: 'Helvetica', 'Arial', 'DejaVu Sans', sans-serif; text-anchor: middle; fill: #4a4f57" x="220.577049" y="140.072088" transform="rotate(-0 220.577049 140.072088)">5</text>
   </g>
   <g id="text_23">
    <text style="font-size: 6.1px; font-family: 'Helvetica', 'Arial', 'DejaVu Sans', sans-serif; text-anchor: middle; fill: #4a4f57" x="257.245715" y="140.072088" transform="rotate(-0 257.245715 140.072088)">6</text>
   </g>
   <g id="text_24">
    <text style="font-size: 6.1px; font-family: 'Helvetica', 'Arial', 'DejaVu Sans', sans-serif; text-anchor: middle; fill: #4a4f57" x="295.766333" y="140.072088" transform="rotate(-0 295.766333 140.072088)">7</text>
   </g>
   <g id="text_25">
    <text style="font-size: 6.1px; font-family: 'Helvetica', 'Arial', 'DejaVu Sans', sans-serif; text-anchor: middle; fill: #4a4f57" x="380.215381" y="140.072088" transform="rotate(-0 380.215381 140.072088)">9</text>
   </g>
   <g id="text_26">
    <text style="font-size: 6.1px; font-family: 'Helvetica', 'Arial', 'DejaVu Sans', sans-serif; text-anchor: middle; fill: #4a4f57" x="424.291858" y="140.072088" transform="rotate(-0 424.291858 140.072088)">10</text>
   </g>
   <g id="text_27">
    <text style="font-size: 6.1px; font-family: 'Helvetica', 'Arial', 'DejaVu Sans', sans-serif; text-anchor: middle; fill: #4a4f57" x="457.997399" y="140.072088" transform="rotate(-0 457.997399 140.072088)">11</text>
   </g>
   <g id="text_28">
    <text style="font-size: 6.1px; font-family: 'Helvetica', 'Arial', 'DejaVu Sans', sans-serif; text-anchor: middle; fill: #4a4f57" x="486.887862" y="140.072088" transform="rotate(-0 486.887862 140.072088)">12</text>
   </g>
   <g id="text_29">
    <text style="font-size: 6.1px; font-family: 'Helvetica', 'Arial', 'DejaVu Sans', sans-serif; text-anchor: middle; fill: #4a4f57" x="523.926918" y="140.072088" transform="rotate(-0 523.926918 140.072088)">13</text>
   </g>
   <g id="text_30">
    <text style="font-size: 6.1px; font-family: 'Helvetica', 'Arial', 'DejaVu Sans', sans-serif; text-anchor: middle; fill: #4a4f57" x="562.817927" y="140.072088" transform="rotate(-0 562.817927 140.072088)">14</text>
   </g>
   <g id="text_31">
    <text style="font-size: 6.1px; font-family: 'Helvetica', 'Arial', 'DejaVu Sans', sans-serif; text-anchor: middle; fill: #4a4f57" x="586.893314" y="140.072088" transform="rotate(-0 586.893314 140.072088)">15</text>
   </g>
   <g id="text_32">
    <text style="font-size: 6.1px; font-family: 'Helvetica', 'Arial', 'DejaVu Sans', sans-serif; text-anchor: middle; fill: #4a4f57" x="612.450262" y="140.072088" transform="rotate(-0 612.450262 140.072088)">16</text>
   </g>
   <g id="text_33">
    <text style="font-size: 6.1px; font-family: 'Helvetica', 'Arial', 'DejaVu Sans', sans-serif; text-anchor: middle; fill: #4a4f57" x="642.451898" y="140.072088" transform="rotate(-0 642.451898 140.072088)">17</text>
   </g>
   <g id="text_34">
    <text style="font-size: 6.1px; font-family: 'Helvetica', 'Arial', 'DejaVu Sans', sans-serif; text-anchor: middle; fill: #4a4f57" x="674.675877" y="140.072088" transform="rotate(-0 674.675877 140.072088)">18</text>
   </g>
   <g id="text_35">
    <text style="font-weight: 700; font-size: 6.1px; font-family: 'Helvetica', 'Arial', 'DejaVu Sans', sans-serif; text-anchor: middle; fill: #ffffff" x="337.620466" y="140.072088" transform="rotate(-0 337.620466 140.072088)">8</text>
   </g>
   <g id="text_36">
    <text style="font-weight: 700; font-size: 7.2px; font-family: 'Helvetica', 'Arial', 'DejaVu Sans', sans-serif; text-anchor: middle; fill: #1a1a1a" x="144.276594" y="81.107217" transform="rotate(-0 144.276594 81.107217)">Ig1</text>
   </g>
   <g id="text_37">
    <text style="font-weight: 700; font-size: 7.2px; font-family: 'Helvetica', 'Arial', 'DejaVu Sans', sans-serif; text-anchor: middle; fill: #1a1a1a" x="242.430092" y="81.107217" transform="rotate(-0 242.430092 81.107217)">Ig2</text>
   </g>
   <g id="text_38">
    <text style="font-weight: 700; font-size: 7.2px; font-family: 'Helvetica', 'Arial', 'DejaVu Sans', sans-serif; text-anchor: middle; fill: #1a1a1a" x="316.878595" y="81.107217" transform="rotate(-0 316.878595 81.107217)">Ig3</text>
   </g>
   <g id="text_39">
    <text style="font-size: 6.4px; font-family: 'Helvetica', 'Arial', 'DejaVu Sans', sans-serif; text-anchor: middle; fill: #1a1a1a" x="373.17796" y="55.491795" transform="rotate(-0 373.17796 55.491795)">TM</text>
   </g>
   <g id="text_40">
    <text style="font-weight: 700; font-size: 7.2px; font-family: 'Helvetica', 'Arial', 'DejaVu Sans', sans-serif; text-anchor: middle; fill: #1a1a1a" x="535.038635" y="81.153342" transform="rotate(-0 535.038635 81.153342)">kinase</text>
   </g>
   <g id="legend_1">
    <g id="patch_26">
     <path d="M 158.643951 220.210885 
L 166.893951 220.210885 
L 166.893951 214.960885 
L 158.643951 214.960885 
z
" style="fill: #0072b2"/>
    </g>
    <g id="text_41">
     <text style="font-size: 7.5px; font-family: 'Helvetica', 'Arial', 'DejaVu Sans', sans-serif; text-anchor: start; fill: #1a1a1a" x="170.643951" y="220.210885" transform="rotate(-0 170.643951 220.210885)">Ig-like domain</text>
    </g>
    <g id="patch_27">
     <path d="M 226.329107 220.210885 
L 234.579107 220.210885 
L 234.579107 214.960885 
L 226.329107 214.960885 
z
" style="fill: #e69f00"/>
    </g>
    <g id="text_42">
     <text style="font-size: 7.5px; font-family: 'Helvetica', 'Arial', 'DejaVu Sans', sans-serif; text-anchor: start; fill: #1a1a1a" x="238.329107" y="220.210885" transform="rotate(-0 238.329107 220.210885)">TM helix (pyTMHMM)</text>
    </g>
    <g id="patch_28">
     <path d="M 319.402935 220.210885 
L 327.652935 220.210885 
L 327.652935 214.960885 
L 319.402935 214.960885 
z
" style="fill: #e6b800"/>
    </g>
    <g id="text_43">
     <text style="font-size: 7.5px; font-family: 'Helvetica', 'Arial', 'DejaVu Sans', sans-serif; text-anchor: start; fill: #1a1a1a" x="331.402935" y="220.210885" transform="rotate(-0 331.402935 220.210885)">kinase domain</text>
    </g>
    <g id="patch_29">
     <path d="M 388.761529 220.210885 
L 397.011529 220.210885 
L 397.011529 214.960885 
L 388.761529 214.960885 
z
" style="fill: #9c6ade"/>
    </g>
    <g id="text_44">
     <text style="font-size: 7.5px; font-family: 'Helvetica', 'Arial', 'DejaVu Sans', sans-serif; text-anchor: start; fill: #1a1a1a" x="400.761529" y="220.210885" transform="rotate(-0 400.761529 220.210885)">IIIb cassette slot</text>
    </g>
    <g id="patch_30">
     <path d="M 463.950201 220.210885 
L 472.200201 220.210885 
L 472.200201 214.960885 
L 463.950201 214.960885 
z
" style="fill: #d9dce1"/>
    </g>
    <g id="text_45">
     <text style="font-size: 7.5px; font-family: 'Helvetica', 'Arial', 'DejaVu Sans', sans-serif; text-anchor: start; fill: #1a1a1a" x="475.950201" y="220.210885" transform="rotate(-0 475.950201 220.210885)">coding exon (CDS, numbered)</text>
    </g>
   </g>
  </g>
 </g>
 <defs>
  <clipPath id="p348fde0d2b">
   <rect x="9.839636" y="26.0425" width="716.209412" height="174.636"/>
  </clipPath>
 </defs>
</svg>
