<?xml version="1.0" encoding="UTF-8"?>
<svg xmlns="http://www.w3.org/2000/svg" version="1.1" width="756" height="279.6" viewBox="0 0 756 279.6">
<rect x="0" y="0" width="756" height="279.6" fill="#ffffff" stroke="none" />
<text x="14" y="24" font-family="Helvetica, Arial, 'Nimbus Sans', 'DejaVu Sans', sans-serif" font-size="12" fill="#1c2433" text-anchor="start" font-weight="bold">PTPN11 · local genomic neighbourhood</text>
<text x="14" y="37" font-family="Helvetica, Arial, 'Nimbus Sans', 'DejaVu Sans', sans-serif" font-size="9" fill="#6B7280" text-anchor="start" font-weight="normal">One row per species, target locus centred on a shared slot grid</text>
<text x="14" y="49" font-family="Helvetica, Arial, 'Nimbus Sans', 'DejaVu Sans', sans-serif" font-size="6.6" fill="#6B7280" text-anchor="start" font-weight="normal" font-style="italic">Which annotated loci flank the target gene, in which transcription direction, and are the same neighbours present across species?</text>
<rect x="397.27" y="61.6" width="57.45" height="142" fill="#0072B2" stroke="none" stroke-width="0.6" opacity="0.07" />
<text x="102" y="80.6" font-family="Helvetica, Arial, 'Nimbus Sans', 'DejaVu Sans', sans-serif" font-size="8.2" fill="#1c2433" text-anchor="end" font-weight="normal" font-style="italic">Homo sapiens</text>
<line x1="110" y1="77.6" x2="742" y2="77.6" stroke="#e3e8f0" stroke-width="0.6" />
<rect x="111.5" y="71.1" width="54.45" height="13" fill="#E3F0E8" stroke="#2F9E6F" stroke-width="0.6" />
<line x1="164.45" y1="77.6" x2="159.95" y2="74.4" stroke="#2F9E6F" stroke-width="0.6" />
<line x1="164.45" y1="77.6" x2="159.95" y2="80.8" stroke="#2F9E6F" stroke-width="0.6" />
<text x="138.73" y="92.7" font-family="Helvetica, Arial, 'Nimbus Sans', 'DejaVu Sans', sans-serif" font-size="6.6" fill="#1C6B4B" text-anchor="middle" font-weight="normal">ERP29</text>
<rect x="168.95" y="71.1" width="54.45" height="13" fill="#E3F0E8" stroke="#2F9E6F" stroke-width="0.6" />
<line x1="170.45" y1="77.6" x2="174.95" y2="74.4" stroke="#2F9E6F" stroke-width="0.6" />
<line x1="170.45" y1="77.6" x2="174.95" y2="80.8" stroke="#2F9E6F" stroke-width="0.6" />
<text x="196.18" y="92.7" font-family="Helvetica, Arial, 'Nimbus Sans', 'DejaVu Sans', sans-serif" font-size="6.6" fill="#1C6B4B" text-anchor="middle" font-weight="normal">NAA25</text>
<rect x="226.41" y="71.1" width="54.45" height="13" fill="#E3F0E8" stroke="#2F9E6F" stroke-width="0.6" />
<line x1="279.36" y1="77.6" x2="274.86" y2="74.4" stroke="#2F9E6F" stroke-width="0.6" />
<line x1="279.36" y1="77.6" x2="274.86" y2="80.8" stroke="#2F9E6F" stroke-width="0.6" />
<text x="253.64" y="92.7" font-family="Helvetica, Arial, 'Nimbus Sans', 'DejaVu Sans', sans-serif" font-size="6.6" fill="#1C6B4B" text-anchor="middle" font-weight="normal">TRAFD1</text>
<rect x="283.86" y="71.1" width="54.45" height="13" fill="#E3F0E8" stroke="#2F9E6F" stroke-width="0.6" />
<line x1="285.36" y1="77.6" x2="289.86" y2="74.4" stroke="#2F9E6F" stroke-width="0.6" />
<line x1="285.36" y1="77.6" x2="289.86" y2="80.8" stroke="#2F9E6F" stroke-width="0.6" />
<text x="311.09" y="92.7" font-family="Helvetica, Arial, 'Nimbus Sans', 'DejaVu Sans', sans-serif" font-size="6.6" fill="#1C6B4B" text-anchor="middle" font-weight="normal">HECTD4</text>
<rect x="341.32" y="71.1" width="54.45" height="13" fill="#E3F0E8" stroke="#2F9E6F" stroke-width="0.6" />
<line x1="342.82" y1="77.6" x2="347.32" y2="74.4" stroke="#2F9E6F" stroke-width="0.6" />
<line x1="342.82" y1="77.6" x2="347.32" y2="80.8" stroke="#2F9E6F" stroke-width="0.6" />
<text x="368.55" y="92.7" font-family="Helvetica, Arial, 'Nimbus Sans', 'DejaVu Sans', sans-serif" font-size="6.6" fill="#1C6B4B" text-anchor="middle" font-weight="normal">RPL6</text>
<rect x="398.77" y="69.1" width="54.45" height="17" fill="#0072B2" stroke="#00456B" stroke-width="1.3" />
<line x1="451.73" y1="77.6" x2="447.23" y2="74.4" stroke="#ffffff" stroke-width="0.6" />
<line x1="451.73" y1="77.6" x2="447.23" y2="80.8" stroke="#ffffff" stroke-width="0.6" />
<text x="426" y="94.7" font-family="Helvetica, Arial, 'Nimbus Sans', 'DejaVu Sans', sans-serif" font-size="6.6" fill="#1c2433" text-anchor="middle" font-weight="bold">PTPN11</text>
<rect x="456.23" y="71.1" width="54.45" height="13" fill="#E3F0E8" stroke="#2F9E6F" stroke-width="0.6" />
<line x1="509.18" y1="77.6" x2="504.68" y2="74.4" stroke="#2F9E6F" stroke-width="0.6" />
<line x1="509.18" y1="77.6" x2="504.68" y2="80.8" stroke="#2F9E6F" stroke-width="0.6" />
<text x="483.45" y="92.7" font-family="Helvetica, Arial, 'Nimbus Sans', 'DejaVu Sans', sans-serif" font-size="6.6" fill="#1C6B4B" text-anchor="middle" font-weight="normal">RPH3A</text>
<rect x="513.68" y="71.1" width="54.45" height="13" fill="#E3F0E8" stroke="#2F9E6F" stroke-width="0.6" />
<line x1="566.64" y1="77.6" x2="562.14" y2="74.4" stroke="#2F9E6F" stroke-width="0.6" />
<line x1="566.64" y1="77.6" x2="562.14" y2="80.8" stroke="#2F9E6F" stroke-width="0.6" />
<text x="540.91" y="92.7" font-family="Helvetica, Arial, 'Nimbus Sans', 'DejaVu Sans', sans-serif" font-size="6.6" fill="#1C6B4B" text-anchor="middle" font-weight="normal">OAS1</text>
<rect x="571.14" y="71.1" width="54.45" height="13" fill="#E3F0E8" stroke="#2F9E6F" stroke-width="0.6" />
<line x1="624.09" y1="77.6" x2="619.59" y2="74.4" stroke="#2F9E6F" stroke-width="0.6" />
<line x1="624.09" y1="77.6" x2="619.59" y2="80.8" stroke="#2F9E6F" stroke-width="0.6" />
<text x="598.36" y="92.7" font-family="Helvetica, Arial, 'Nimbus Sans', 'DejaVu Sans', sans-serif" font-size="6.6" fill="#1C6B4B" text-anchor="middle" font-weight="normal">OAS3</text>
<rect x="628.59" y="71.1" width="54.45" height="13" fill="#E3F0E8" stroke="#2F9E6F" stroke-width="0.6" />
<line x1="681.55" y1="77.6" x2="677.05" y2="74.4" stroke="#2F9E6F" stroke-width="0.6" />
<line x1="681.55" y1="77.6" x2="677.05" y2="80.8" stroke="#2F9E6F" stroke-width="0.6" />
<text x="655.82" y="92.7" font-family="Helvetica, Arial, 'Nimbus Sans', 'DejaVu Sans', sans-serif" font-size="6.6" fill="#1C6B4B" text-anchor="middle" font-weight="normal">OAS2</text>
<rect x="686.05" y="71.1" width="54.45" height="13" fill="#E3F0E8" stroke="#2F9E6F" stroke-width="0.6" />
<line x1="739" y1="77.6" x2="734.5" y2="74.4" stroke="#2F9E6F" stroke-width="0.6" />
<line x1="739" y1="77.6" x2="734.5" y2="80.8" stroke="#2F9E6F" stroke-width="0.6" />
<text x="713.27" y="92.7" font-family="Helvetica, Arial, 'Nimbus Sans', 'DejaVu Sans', sans-serif" font-size="6.6" fill="#1C6B4B" text-anchor="middle" font-weight="normal">DTX1</text>
<text x="102" y="126.6" font-family="Helvetica, Arial, 'Nimbus Sans', 'DejaVu Sans', sans-serif" font-size="8.2" fill="#1c2433" text-anchor="end" font-weight="normal" font-style="italic">Mus musculus</text>
<line x1="110" y1="123.6" x2="742" y2="123.6" stroke="#e3e8f0" stroke-width="0.6" />
<rect x="111.5" y="117.1" width="54.45" height="13" fill="#E3F0E8" stroke="#2F9E6F" stroke-width="0.6" />
<line x1="113" y1="123.6" x2="117.5" y2="120.4" stroke="#2F9E6F" stroke-width="0.6" />
<line x1="113" y1="123.6" x2="117.5" y2="126.8" stroke="#2F9E6F" stroke-width="0.6" />
<text x="138.73" y="138.7" font-family="Helvetica, Arial, 'Nimbus Sans', 'DejaVu Sans', sans-serif" font-size="6.6" fill="#1C6B4B" text-anchor="middle" font-weight="normal">Erp29</text>
<rect x="168.95" y="117.1" width="54.45" height="13" fill="#E3F0E8" stroke="#2F9E6F" stroke-width="0.6" />
<line x1="221.91" y1="123.6" x2="217.41" y2="120.4" stroke="#2F9E6F" stroke-width="0.6" />
<line x1="221.91" y1="123.6" x2="217.41" y2="126.8" stroke="#2F9E6F" stroke-width="0.6" />
<text x="196.18" y="138.7" font-family="Helvetica, Arial, 'Nimbus Sans', 'DejaVu Sans', sans-serif" font-size="6.6" fill="#1C6B4B" text-anchor="middle" font-weight="normal">Naa25</text>
<rect x="226.41" y="117.1" width="54.45" height="13" fill="#E3F0E8" stroke="#2F9E6F" stroke-width="0.6" />
<line x1="227.91" y1="123.6" x2="232.41" y2="120.4" stroke="#2F9E6F" stroke-width="0.6" />
<line x1="227.91" y1="123.6" x2="232.41" y2="126.8" stroke="#2F9E6F" stroke-width="0.6" />
<text x="253.64" y="138.7" font-family="Helvetica, Arial, 'Nimbus Sans', 'DejaVu Sans', sans-serif" font-size="6.6" fill="#1C6B4B" text-anchor="middle" font-weight="normal">Trafd1</text>
<rect x="283.86" y="117.1" width="54.45" height="13" fill="#E3F0E8" stroke="#2F9E6F" stroke-width="0.6" />
<line x1="336.82" y1="123.6" x2="332.32" y2="120.4" stroke="#2F9E6F" stroke-width="0.6" />
<line x1="336.82" y1="123.6" x2="332.32" y2="126.8" stroke="#2F9E6F" stroke-width="0.6" />
<text x="311.09" y="138.7" font-family="Helvetica, Arial, 'Nimbus Sans', 'DejaVu Sans', sans-serif" font-size="6.6" fill="#1C6B4B" text-anchor="middle" font-weight="normal">Hectd4</text>
<rect x="341.32" y="117.1" width="54.45" height="13" fill="#E3F0E8" stroke="#2F9E6F" stroke-width="0.6" />
<line x1="394.27" y1="123.6" x2="389.77" y2="120.4" stroke="#2F9E6F" stroke-width="0.6" />
<line x1="394.27" y1="123.6" x2="389.77" y2="126.8" stroke="#2F9E6F" stroke-width="0.6" />
<text x="368.55" y="138.7" font-family="Helvetica, Arial, 'Nimbus Sans', 'DejaVu Sans', sans-serif" font-size="6.6" fill="#1C6B4B" text-anchor="middle" font-weight="normal">Rpl6</text>
<rect x="398.77" y="115.1" width="54.45" height="17" fill="#0072B2" stroke="#00456B" stroke-width="1.3" />
<line x1="400.27" y1="123.6" x2="404.77" y2="120.4" stroke="#ffffff" stroke-width="0.6" />
<line x1="400.27" y1="123.6" x2="404.77" y2="126.8" stroke="#ffffff" stroke-width="0.6" />
<text x="426" y="140.7" font-family="Helvetica, Arial, 'Nimbus Sans', 'DejaVu Sans', sans-serif" font-size="6.6" fill="#1c2433" text-anchor="middle" font-weight="bold">Ptpn11</text>
<rect x="456.23" y="117.1" width="54.45" height="13" fill="#E3F0E8" stroke="#2F9E6F" stroke-width="0.6" />
<line x1="457.73" y1="123.6" x2="462.23" y2="120.4" stroke="#2F9E6F" stroke-width="0.6" />
<line x1="457.73" y1="123.6" x2="462.23" y2="126.8" stroke="#2F9E6F" stroke-width="0.6" />
<text x="483.45" y="138.7" font-family="Helvetica, Arial, 'Nimbus Sans', 'DejaVu Sans', sans-serif" font-size="6.6" fill="#1C6B4B" text-anchor="middle" font-weight="normal">Rph3a</text>
<rect x="513.68" y="117.1" width="54.45" height="13" fill="#E3F0E8" stroke="#2F9E6F" stroke-width="0.6" />
<line x1="566.64" y1="123.6" x2="562.14" y2="120.4" stroke="#2F9E6F" stroke-width="0.6" />
<line x1="566.64" y1="123.6" x2="562.14" y2="126.8" stroke="#2F9E6F" stroke-width="0.6" />
<text x="540.91" y="138.7" font-family="Helvetica, Arial, 'Nimbus Sans', 'DejaVu Sans', sans-serif" font-size="6.6" fill="#1C6B4B" text-anchor="middle" font-weight="normal">Oas1d</text>
<rect x="571.14" y="117.1" width="54.45" height="13" fill="#E3F0E8" stroke="#2F9E6F" stroke-width="0.6" />
<line x1="572.64" y1="123.6" x2="577.14" y2="120.4" stroke="#2F9E6F" stroke-width="0.6" />
<line x1="572.64" y1="123.6" x2="577.14" y2="126.8" stroke="#2F9E6F" stroke-width="0.6" />
<text x="598.36" y="138.7" font-family="Helvetica, Arial, 'Nimbus Sans', 'DejaVu Sans', sans-serif" font-size="6.6" fill="#1C6B4B" text-anchor="middle" font-weight="normal">Oas1a</text>
<rect x="628.59" y="117.1" width="54.45" height="13" fill="#E3F0E8" stroke="#2F9E6F" stroke-width="0.6" />
<line x1="630.09" y1="123.6" x2="634.59" y2="120.4" stroke="#2F9E6F" stroke-width="0.6" />
<line x1="630.09" y1="123.6" x2="634.59" y2="126.8" stroke="#2F9E6F" stroke-width="0.6" />
<text x="655.82" y="138.7" font-family="Helvetica, Arial, 'Nimbus Sans', 'DejaVu Sans', sans-serif" font-size="6.6" fill="#1C6B4B" text-anchor="middle" font-weight="normal">Oas1g</text>
<rect x="686.05" y="117.1" width="54.45" height="13" fill="#E3F0E8" stroke="#2F9E6F" stroke-width="0.6" />
<line x1="739" y1="123.6" x2="734.5" y2="120.4" stroke="#2F9E6F" stroke-width="0.6" />
<line x1="739" y1="123.6" x2="734.5" y2="126.8" stroke="#2F9E6F" stroke-width="0.6" />
<text x="713.27" y="138.7" font-family="Helvetica, Arial, 'Nimbus Sans', 'DejaVu Sans', sans-serif" font-size="6.6" fill="#1C6B4B" text-anchor="middle" font-weight="normal">Oas1h</text>
<text x="102" y="172.6" font-family="Helvetica, Arial, 'Nimbus Sans', 'DejaVu Sans', sans-serif" font-size="8.2" fill="#1c2433" text-anchor="end" font-weight="normal" font-style="italic">Rattus norvegicus</text>
<line x1="110" y1="169.6" x2="742" y2="169.6" stroke="#e3e8f0" stroke-width="0.6" />
<rect x="111.5" y="163.1" width="54.45" height="13" fill="#F5F1E6" stroke="#B8A272" stroke-width="0.6" />
<line x1="164.45" y1="169.6" x2="159.95" y2="166.4" stroke="#B8A272" stroke-width="0.6" />
<line x1="164.45" y1="169.6" x2="159.95" y2="172.8" stroke="#B8A272" stroke-width="0.6" />
<text x="138.73" y="184.7" font-family="Helvetica, Arial, 'Nimbus Sans', 'DejaVu Sans', sans-serif" font-size="6.6" fill="#7A5A1C" text-anchor="middle" font-weight="normal" font-style="italic">LOC100364561</text>
<rect x="168.95" y="163.1" width="54.45" height="13" fill="#E3F0E8" stroke="#2F9E6F" stroke-width="0.6" />
<line x1="170.45" y1="169.6" x2="174.95" y2="166.4" stroke="#2F9E6F" stroke-width="0.6" />
<line x1="170.45" y1="169.6" x2="174.95" y2="172.8" stroke="#2F9E6F" stroke-width="0.6" />
<text x="196.18" y="184.7" font-family="Helvetica, Arial, 'Nimbus Sans', 'DejaVu Sans', sans-serif" font-size="6.6" fill="#1C6B4B" text-anchor="middle" font-weight="normal">Hectd4</text>
<rect x="226.41" y="163.1" width="54.45" height="13" fill="#F5F1E6" stroke="#B8A272" stroke-width="0.6" />
<line x1="227.91" y1="169.6" x2="232.41" y2="166.4" stroke="#B8A272" stroke-width="0.6" />
<line x1="227.91" y1="169.6" x2="232.41" y2="172.8" stroke="#B8A272" stroke-width="0.6" />
<text x="253.64" y="184.7" font-family="Helvetica, Arial, 'Nimbus Sans', 'DejaVu Sans', sans-serif" font-size="6.6" fill="#7A5A1C" text-anchor="middle" font-weight="normal" font-style="italic">LOC100909911</text>
<rect x="283.86" y="163.1" width="54.45" height="13" fill="#E3F0E8" stroke="#2F9E6F" stroke-width="0.6" />
<line x1="336.82" y1="169.6" x2="332.32" y2="166.4" stroke="#2F9E6F" stroke-width="0.6" />
<line x1="336.82" y1="169.6" x2="332.32" y2="172.8" stroke="#2F9E6F" stroke-width="0.6" />
<text x="311.09" y="184.7" font-family="Helvetica, Arial, 'Nimbus Sans', 'DejaVu Sans', sans-serif" font-size="6.6" fill="#1C6B4B" text-anchor="middle" font-weight="normal">Trafd1</text>
<rect x="341.32" y="163.1" width="54.45" height="13" fill="#E3F0E8" stroke="#2F9E6F" stroke-width="0.6" />
<line x1="342.82" y1="169.6" x2="347.32" y2="166.4" stroke="#2F9E6F" stroke-width="0.6" />
<line x1="342.82" y1="169.6" x2="347.32" y2="172.8" stroke="#2F9E6F" stroke-width="0.6" />
<text x="368.55" y="184.7" font-family="Helvetica, Arial, 'Nimbus Sans', 'DejaVu Sans', sans-serif" font-size="6.6" fill="#1C6B4B" text-anchor="middle" font-weight="normal">Rpl6</text>
<rect x="398.77" y="161.1" width="54.45" height="17" fill="#0072B2" stroke="#00456B" stroke-width="1.3" />
<line x1="451.73" y1="169.6" x2="447.23" y2="166.4" stroke="#ffffff" stroke-width="0.6" />
<line x1="451.73" y1="169.6" x2="447.23" y2="172.8" stroke="#ffffff" stroke-width="0.6" />
<text x="426" y="186.7" font-family="Helvetica, Arial, 'Nimbus Sans', 'DejaVu Sans', sans-serif" font-size="6.6" fill="#1c2433" text-anchor="middle" font-weight="bold">Ptpn11</text>
<rect x="456.23" y="163.1" width="54.45" height="13" fill="#E3F0E8" stroke="#2F9E6F" stroke-width="0.6" />
<line x1="509.18" y1="169.6" x2="504.68" y2="166.4" stroke="#2F9E6F" stroke-width="0.6" />
<line x1="509.18" y1="169.6" x2="504.68" y2="172.8" stroke="#2F9E6F" stroke-width="0.6" />
<text x="483.45" y="184.7" font-family="Helvetica, Arial, 'Nimbus Sans', 'DejaVu Sans', sans-serif" font-size="6.6" fill="#1C6B4B" text-anchor="middle" font-weight="normal">Rph3a</text>
<rect x="513.68" y="163.1" width="54.45" height="13" fill="#E3F0E8" stroke="#2F9E6F" stroke-width="0.6" />
<line x1="566.64" y1="169.6" x2="562.14" y2="166.4" stroke="#2F9E6F" stroke-width="0.6" />
<line x1="566.64" y1="169.6" x2="562.14" y2="172.8" stroke="#2F9E6F" stroke-width="0.6" />
<text x="540.91" y="184.7" font-family="Helvetica, Arial, 'Nimbus Sans', 'DejaVu Sans', sans-serif" font-size="6.6" fill="#1C6B4B" text-anchor="middle" font-weight="normal">Oas1i</text>
<rect x="571.14" y="163.1" width="54.45" height="13" fill="#E3F0E8" stroke="#2F9E6F" stroke-width="0.6" />
<line x1="572.64" y1="169.6" x2="577.14" y2="166.4" stroke="#2F9E6F" stroke-width="0.6" />
<line x1="572.64" y1="169.6" x2="577.14" y2="172.8" stroke="#2F9E6F" stroke-width="0.6" />
<text x="598.36" y="184.7" font-family="Helvetica, Arial, 'Nimbus Sans', 'DejaVu Sans', sans-serif" font-size="6.6" fill="#1C6B4B" text-anchor="middle" font-weight="normal">Oas1d</text>
<rect x="628.59" y="163.1" width="54.45" height="13" fill="#E3F0E8" stroke="#2F9E6F" stroke-width="0.6" />
<line x1="681.55" y1="169.6" x2="677.05" y2="166.4" stroke="#2F9E6F" stroke-width="0.6" />
<line x1="681.55" y1="169.6" x2="677.05" y2="172.8" stroke="#2F9E6F" stroke-width="0.6" />
<text x="655.82" y="184.7" font-family="Helvetica, Arial, 'Nimbus Sans', 'DejaVu Sans', sans-serif" font-size="6.6" fill="#1C6B4B" text-anchor="middle" font-weight="normal">Oas1a</text>
<rect x="686.05" y="163.1" width="54.45" height="13" fill="#E3F0E8" stroke="#2F9E6F" stroke-width="0.6" />
<line x1="687.55" y1="169.6" x2="692.05" y2="166.4" stroke="#2F9E6F" stroke-width="0.6" />
<line x1="687.55" y1="169.6" x2="692.05" y2="172.8" stroke="#2F9E6F" stroke-width="0.6" />
<text x="713.27" y="184.7" font-family="Helvetica, Arial, 'Nimbus Sans', 'DejaVu Sans', sans-serif" font-size="6.6" fill="#1C6B4B" text-anchor="middle" font-weight="normal">Oas1h</text>
<text x="110" y="216.2" font-family="Helvetica, Arial, 'Nimbus Sans', 'DejaVu Sans', sans-serif" font-size="6.6" fill="#6B7280" text-anchor="start" font-weight="normal">upstream (rank 5 → 1)</text>
<text x="426" y="216.2" font-family="Helvetica, Arial, 'Nimbus Sans', 'DejaVu Sans', sans-serif" font-size="6.6" fill="#6B7280" text-anchor="middle" font-weight="normal">target locus</text>
<text x="742" y="216.2" font-family="Helvetica, Arial, 'Nimbus Sans', 'DejaVu Sans', sans-serif" font-size="6.6" fill="#6B7280" text-anchor="end" font-weight="normal">downstream (rank 1 → 5)</text>
<rect x="14" y="220.2" width="7" height="7" fill="#0072B2" stroke="#9aa4b2" stroke-width="0.6" />
<text x="25" y="226.2" font-family="Helvetica, Arial, 'Nimbus Sans', 'DejaVu Sans', sans-serif" font-size="7.6" fill="#1c2433" text-anchor="start" font-weight="normal">Target gene</text>
<rect x="76.57" y="220.2" width="7" height="7" fill="#E3F0E8" stroke="#9aa4b2" stroke-width="0.6" />
<text x="87.57" y="226.2" font-family="Helvetica, Arial, 'Nimbus Sans', 'DejaVu Sans', sans-serif" font-size="7.6" fill="#1c2433" text-anchor="start" font-weight="normal">Resolved ortholog</text>
<rect x="159.51" y="220.2" width="7" height="7" fill="#F5F1E6" stroke="#9aa4b2" stroke-width="0.6" />
<text x="170.51" y="226.2" font-family="Helvetica, Arial, 'Nimbus Sans', 'DejaVu Sans', sans-serif" font-size="7.6" fill="#1c2433" text-anchor="start" font-weight="normal">Placeholder locus</text>
<text x="14" y="244.4" font-family="Helvetica, Arial, 'Nimbus Sans', 'DejaVu Sans', sans-serif" font-size="6.6" fill="#6B7280" text-anchor="start" font-weight="normal">Loci are placed by annotated neighbour rank, not by genomic coordinate; the spacing carries no distance information. The arrowhead is the annotated transcription direction. Local synteny is supporting evidence for locus identity and</text>
<text x="14" y="253" font-family="Helvetica, Arial, 'Nimbus Sans', 'DejaVu Sans', sans-serif" font-size="6.6" fill="#6B7280" text-anchor="start" font-weight="normal">genomic context; it does not by itself establish isoform or event identity.</text>
<text x="14" y="261.6" font-family="Helvetica, Arial, 'Nimbus Sans', 'DejaVu Sans', sans-serif" font-size="6.6" fill="#6B7280" text-anchor="start" font-weight="normal">Species shown: 3 of 3 in this dataset · complete neighbourhood: Homo sapiens, Mus musculus, Rattus norvegicus · partial: none · no neighbourhood available: none.</text>
</svg>
